<?xml version="1.0" encoding="UTF-8"?>
<svg width="9px" height="14px" viewBox="0 0 9 14" version="1.1" xmlns="http://www.w3.org/2000/svg" xmlns:xlink="http://www.w3.org/1999/xlink">
    <title>Back</title>
    <g id="🎨-Setup-—-Customize-Here-" stroke="none" stroke-width="1" fill="none" fill-rule="evenodd">
        <g id="Symbols" transform="translate(-104.000000, -133.000000)">
            <g id="Group" transform="translate(97.000000, 128.000000)">
                <polygon id="Path" points="0 0 24 0 24 24 0 24"></polygon>
                <path d="M15.41,7.41 C16.0392514,6.47562114 16.0392514,4.82535077 14,6 C12.744261,6.72333057 12.0174135,7.99790653 10.5874851,9.37901823 C10.015132,9.93183166 8.91987757,10.8054922 7.30172185,12 C9.45451886,13.4004944 10.8696279,14.4141589 11.5470488,15.0409935 C12.7648273,16.1678345 12.7897972,17.3149185 14,18 C15.41,18.5927507 16.3591829,18 15.41,16.59 C14.5302189,14.9907074 12.9227139,13.3929166 10.5874851,11.7966276 C12.886268,10.2327198 14.493773,8.77051061 15.41,7.41 Z" id="🎨-Shape-Color" fill="#3B6993"></path>
            </g>
        </g>
    </g>
</svg>