<?xml version="1.0" encoding="UTF-8"?>
<svg width="39px" height="39px" viewBox="0 0 39 39" version="1.1" xmlns="http://www.w3.org/2000/svg" xmlns:xlink="http://www.w3.org/1999/xlink">
    <title>arrowleftcircle</title>
    <defs>
        <filter x="-38.7%" y="-38.7%" width="177.4%" height="177.4%" filterUnits="objectBoundingBox" id="filter-1">
            <feOffset dx="0" dy="2" in="SourceAlpha" result="shadowOffsetOuter1"></feOffset>
            <feGaussianBlur stdDeviation="2" in="shadowOffsetOuter1" result="shadowBlurOuter1"></feGaussianBlur>
            <feColorMatrix values="0 0 0 0 0.380392157   0 0 0 0 0.37254902   0 0 0 0 0.37254902  0 0 0 0.674087631 0" type="matrix" in="shadowBlurOuter1" result="shadowMatrixOuter1"></feColorMatrix>
            <feMerge>
                <feMergeNode in="shadowMatrixOuter1"></feMergeNode>
                <feMergeNode in="SourceGraphic"></feMergeNode>
            </feMerge>
        </filter>
    </defs>
    <g id="🎨-Setup-—-Customize-Here-" stroke="none" stroke-width="1" fill="none" fill-rule="evenodd">
        <g id="Symbols" transform="translate(-181.000000, -326.000000)">
            <g id="arrowleftcircle" transform="translate(185.000000, 328.000000)" filter="url(#filter-1)">
                <g id="Group-3">
                    <g id="Group" fill="#9DB3C6" fill-opacity="0.5">
                        <g id="oval">
                            <circle cx="15.5" cy="15.5" r="15.5"></circle>
                        </g>
                    </g>
                    <g id="Group" transform="translate(6.000000, 8.000000)" fill="#3B6993" fill-rule="nonzero">
                        <g id="Combined-Shape">
                            <path d="M6.29289322,0.80118086 C6.68341751,0.410656569 7.49276262,-0.274066301 7.88328691,0.116457991 C8.2738112,0.506982282 8.09763107,1.42039138 7.70710678,1.81091568 C6.91563431,2.90589855 6.26401088,3.70927718 5.7522365,4.22105156 C5.24882053,4.72446752 4.39510097,5.38815951 3.19107781,6.2121275 C6.45781503,6.36678727 8.97490689,6.44378271 10.7426166,6.44378271 C12.1536005,6.44378271 14.2393949,6.3304581 17,6.10380889 C17.5522847,6.10380889 18.2641871,6.37068357 18.2641871,6.92296832 C18.2641871,7.18586357 18.1111909,7.53272365 17.9190217,7.79991593 C17.707486,8.09403552 17.2893895,8.10380889 17,8.10380889 C15.8208058,7.90121359 14.6058058,7.79991593 13.355,7.79991593 C11.3529472,7.79991593 7.98240596,7.8763528 3.24337642,8.02922655 C3.95933338,8.95564225 4.74419918,10.1801311 5.2070331,10.642965 C5.753801,11.1897329 6.39563693,11.7678157 7.13254088,12.3772133 C7.52306517,12.7677375 8.6026868,13.7681468 8.21216251,14.1586711 C7.82163821,14.5491954 6.68341751,14.20144 6.29289322,13.8109157 C4.62874704,11.8660758 3.33585382,10.4328357 2.41421356,9.51119543 C2.03786339,9.13484526 1.41464354,8.62890969 0.544554011,7.99338873 C0.414681988,7.9276313 0.301798976,7.83398673 0.212862142,7.72065606 C0.202995468,7.70819577 0.193378656,7.69533117 0.184111673,7.68229424 C0.171796451,7.66483147 0.159791294,7.64672719 0.148372374,7.62822273 C0.138635175,7.6125792 0.129813374,7.59735766 0.121426076,7.5819623 C0.11185933,7.56429871 0.102471016,7.54576362 0.0936537803,7.52690804 C0.0856790475,7.50990739 0.0781964242,7.49260454 0.0712254916,7.47514492 C0.0633157362,7.4553881 0.0561224864,7.43560657 0.0495466818,7.41554531 C0.0447287157,7.40066024 0.0400977346,7.38527217 0.0358451423,7.36980186 C0.0298336259,7.34824537 0.0246397952,7.32655497 0.0201651536,7.30460299 C0.0167181864,7.2872627 0.0136559223,7.26991568 0.0110532788,7.25251318 C0.00376118706,7.20417099 1.15463195e-13,7.15442918 1.15463195e-13,7.10380889 L0.00394365216,7.19280312 C0.00190536003,7.16985359 0.000657192381,7.14684711 0.000199149207,7.12382782 L1.15463195e-13,7.10380889 C1.15463195e-13,7.09734744 6.128258e-05,7.09090029 0.000183298222,7.08446801 C0.00062279659,7.06135201 0.00188502198,7.0379258 0.00396640833,7.01455883 C0.0057479633,6.99411397 0.00810097727,6.97438846 0.0110193427,6.95484768 C0.0136678257,6.9375937 0.0167958926,6.91990297 0.0204020016,6.90229063 C0.0247252006,6.88075657 0.029758758,6.85973214 0.0354442834,6.83897723 C0.0401210588,6.82214289 0.0453572721,6.80481917 0.0510732771,6.78761994 C0.0566107961,6.77085378 0.062451493,6.75475371 0.0686876863,6.73885219 C0.0766489211,6.71850879 0.0855546676,6.69779946 0.0951922148,6.67734934 C0.104044299,6.65871838 0.1131069,6.64096257 0.122674361,6.62352303 C0.129861121,6.61023937 0.137727186,6.59663925 0.145939874,6.58319114 C0.158919233,6.56211553 0.17252629,6.54159414 0.186850899,6.52162224 C0.217951866,6.47810952 0.253428471,6.43616686 0.292893219,6.39670211 L0.216609189,6.48221641 C0.304491408,6.37160693 0.415305095,6.28003621 0.541861622,6.21469288 C2.14527295,5.05394683 3.29730629,4.14563211 4,3.49030918 C4.59444814,2.93593464 5.35874588,2.03955853 6.29289322,0.80118086 Z"></path>
                        </g>
                    </g>
                </g>
            </g>
        </g>
    </g>
</svg>