<?xml version="1.0" encoding="UTF-8"?>
<svg width="45px" height="35px" viewBox="0 0 45 35" version="1.1" xmlns="http://www.w3.org/2000/svg" xmlns:xlink="http://www.w3.org/1999/xlink">
    <title>Group 2</title>
    <defs>
        <path d="M13.376577,9.376577 C13.8786797,8.87447433 14.6927489,8.87447433 15.1948516,9.376577 L15.1948516,9.376577 L22,16.182 L28.8051484,9.376577 C29.2737776,8.90794785 30.0141643,8.8767059 30.5190278,9.28285117 L30.623423,9.376577 C31.1255257,9.87867966 31.1255257,10.6927489 30.623423,11.1948516 L30.623423,11.1948516 L23.818,18 L30.623423,24.8051484 C31.0920522,25.2737776 31.1232941,26.0141643 30.7171488,26.5190278 L30.623423,26.623423 C30.1213203,27.1255257 29.3072511,27.1255257 28.8051484,26.623423 L28.8051484,26.623423 L22,19.818 L15.1948516,26.623423 C14.7262224,27.0920522 13.9858357,27.1232941 13.4809722,26.7171488 L13.376577,26.623423 C12.8744743,26.1213203 12.8744743,25.3072511 13.376577,24.8051484 L13.376577,24.8051484 L20.182,18 L13.376577,11.1948516 C12.9079478,10.7262224 12.8767059,9.98583571 13.2828512,9.48097221 Z" id="path-1"></path>
    </defs>
    <g id="🎨-Setup-—-Customize-Here-" stroke="none" stroke-width="1" fill="none" fill-rule="evenodd">
        <g id="Symbols" transform="translate(-303.000000, -274.000000)">
            <g id="Group-2" transform="translate(303.000000, 274.000000)">
                <rect id="Rectangle" fill="#9DB3C6" x="0" y="0" width="45" height="35" rx="5"></rect>
                <mask id="mask-2" fill="white">
                    <use xlink:href="#path-1"></use>
                </mask>
                <use id="Combined-Shape" fill="#FFFCF9" fill-rule="nonzero" xlink:href="#path-1"></use>
            </g>
        </g>
    </g>
</svg>