<?xml version="1.0" encoding="UTF-8"?>
<svg width="141px" height="27px" viewBox="0 0 141 27" version="1.1" xmlns="http://www.w3.org/2000/svg" xmlns:xlink="http://www.w3.org/1999/xlink">
    <title>Group</title>
    <g id="🎨-Setup-—-Customize-Here-" stroke="none" stroke-width="1" fill="none" fill-rule="evenodd">
        <g id="Logo" transform="translate(-388.000000, -758.000000)">
            <g id="Group" transform="translate(388.000000, 758.000000)">
                <path d="M42.456,26.928 C43.256,26.928 44.232,26.872 45.384,26.76 C46.536,26.648 47.688,26.44 48.84,26.136 C49.992,25.832 51.048,25.408 52.008,24.864 C52.968,24.32 53.624,23.616 53.976,22.752 C54.424,21.632 54.496,20.632 54.192,19.752 C53.888,18.872 53.32,18.064 52.488,17.328 C51.656,16.592 50.632,15.872 49.416,15.168 C48.2,14.464 47.032,13.776 45.912,13.104 C45.24,12.656 44.728,12.208 44.376,11.76 C44.024,11.312 43.896,10.848 43.992,10.368 C44.024,10.112 44.216,9.816 44.568,9.48 C44.92,9.144 45.352,8.84 45.864,8.568 C46.376,8.296 46.936,8.096 47.544,7.968 C48.152,7.84 48.728,7.856 49.272,8.016 C49.528,8.112 49.688,8.32 49.752,8.64 C49.816,8.96 49.88,9.296 49.944,9.648 C49.976,9.936 50.128,10.168 50.4,10.344 C50.672,10.52 51.032,10.576 51.48,10.512 C51.832,10.448 52.08,10.272 52.224,9.984 C52.368,9.696 52.44,9.328 52.44,8.88 C52.28,7.536 51.752,6.52 50.856,5.832 C49.96,5.144 48.824,4.768 47.448,4.704 C46.648,4.704 45.848,4.88 45.048,5.232 C44.248,5.584 43.536,6.056 42.912,6.648 C42.288,7.24 41.784,7.92 41.4,8.688 C41.016,9.456 40.84,10.256 40.872,11.088 C41,12.016 41.304,12.792 41.784,13.416 C42.264,14.04 42.84,14.576 43.512,15.024 C44.184,15.472 44.992,15.968 45.936,16.512 C46.88,17.056 47.76,17.616 48.576,18.192 C49.392,18.768 50.048,19.32 50.544,19.848 C51.04,20.376 51.176,20.832 50.952,21.216 C50.696,21.664 50.248,22.032 49.608,22.32 C48.968,22.608 48.248,22.84 47.448,23.016 C46.648,23.192 45.808,23.32 44.928,23.4 C44.048,23.48 43.224,23.52 42.456,23.52 C41.912,23.52 41.384,23.632 40.872,23.856 C40.36,24.08 40.104,24.48 40.104,25.056 C40.104,25.216 40.192,25.4 40.368,25.608 C40.544,25.816 40.752,26.016 40.992,26.208 C41.232,26.4 41.488,26.568 41.76,26.712 C42.032,26.856 42.264,26.928 42.456,26.928 Z" id="s" fill="#3B6993" fill-rule="nonzero"></path>
                <path d="M59.176,26.016 C59.432,26.016 59.664,25.912 59.872,25.704 C60.08,25.496 60.248,25.104 60.376,24.528 C60.504,23.76 60.704,22.752 60.976,21.504 C61.248,20.256 61.6,19.024 62.032,17.808 C62.464,16.592 62.976,15.504 63.568,14.544 C64.16,13.584 64.856,13.024 65.656,12.864 C66.168,12.768 66.616,12.912 67,13.296 C67.384,13.68 67.712,14.216 67.984,14.904 C68.256,15.592 68.488,16.368 68.68,17.232 C68.872,18.096 69.032,18.952 69.16,19.8 C69.288,20.648 69.4,21.44 69.496,22.176 C69.592,22.912 69.688,23.472 69.784,23.856 C69.944,24.336 70.208,24.744 70.576,25.08 C70.944,25.416 71.256,25.584 71.512,25.584 C71.864,25.584 72.168,25.424 72.424,25.104 C72.68,24.784 72.808,24.368 72.808,23.856 C72.744,23.152 72.664,22.312 72.568,21.336 C72.472,20.36 72.32,19.336 72.112,18.264 C71.904,17.192 71.64,16.136 71.32,15.096 C71,14.056 70.608,13.112 70.144,12.264 C69.68,11.416 69.136,10.736 68.512,10.224 C67.888,9.712 67.176,9.456 66.376,9.456 C65.64,9.456 64.96,9.6 64.336,9.888 C63.712,10.176 63.12,10.56 62.56,11.04 C62,11.52 61.496,12.072 61.048,12.696 C60.6,13.32 60.216,13.952 59.896,14.592 C59.864,13.6 59.84,12.56 59.824,11.472 C59.808,10.384 59.792,9.328 59.776,8.304 C59.76,7.28 59.76,6.288 59.776,5.328 C59.792,4.368 59.8,3.504 59.8,2.736 C59.8,2.16 59.656,1.624 59.368,1.128 C59.08,0.632 58.744,0.352 58.36,0.288 C57.208,0.128 56.632,0.848 56.632,2.448 C56.568,4.368 56.536,6.168 56.536,7.848 C56.536,9.528 56.56,11.168 56.608,12.768 C56.656,14.368 56.728,15.96 56.824,17.544 C56.92,19.128 57.048,20.784 57.208,22.512 C57.24,22.8 57.32,23.144 57.448,23.544 C57.576,23.944 57.728,24.328 57.904,24.696 C58.08,25.064 58.272,25.376 58.48,25.632 C58.688,25.888 58.92,26.016 59.176,26.016 Z M78.2,26.016 C78.456,26.016 78.688,25.912 78.896,25.704 C79.104,25.496 79.272,25.104 79.4,24.528 C79.528,23.76 79.728,22.752 80,21.504 C80.272,20.256 80.624,19.024 81.056,17.808 C81.488,16.592 82,15.504 82.592,14.544 C83.184,13.584 83.88,13.024 84.68,12.864 C85.192,12.768 85.64,12.912 86.024,13.296 C86.408,13.68 86.736,14.216 87.008,14.904 C87.28,15.592 87.512,16.368 87.704,17.232 C87.896,18.096 88.056,18.952 88.184,19.8 C88.312,20.648 88.424,21.44 88.52,22.176 C88.616,22.912 88.712,23.472 88.808,23.856 C88.968,24.336 89.232,24.744 89.6,25.08 C89.968,25.416 90.28,25.584 90.536,25.584 C90.888,25.584 91.192,25.424 91.448,25.104 C91.704,24.784 91.832,24.368 91.832,23.856 C91.768,23.152 91.688,22.312 91.592,21.336 C91.496,20.36 91.344,19.336 91.136,18.264 C90.928,17.192 90.664,16.136 90.344,15.096 C90.024,14.056 89.632,13.112 89.168,12.264 C88.704,11.416 88.16,10.736 87.536,10.224 C86.912,9.712 86.2,9.456 85.4,9.456 C84.664,9.456 83.984,9.6 83.36,9.888 C82.736,10.176 82.144,10.56 81.584,11.04 C81.024,11.52 80.52,12.072 80.072,12.696 C79.624,13.32 79.24,13.952 78.92,14.592 C78.888,13.6 78.864,12.56 78.848,11.472 C78.832,10.384 78.816,9.328 78.8,8.304 C78.784,7.28 78.784,6.288 78.8,5.328 C78.816,4.368 78.824,3.504 78.824,2.736 C78.824,2.16 78.68,1.624 78.392,1.128 C78.104,0.632 77.768,0.352 77.384,0.288 C76.232,0.128 75.656,0.848 75.656,2.448 C75.592,4.368 75.56,6.168 75.56,7.848 C75.56,9.528 75.584,11.168 75.632,12.768 C75.68,14.368 75.752,15.96 75.848,17.544 C75.944,19.128 76.072,20.784 76.232,22.512 C76.264,22.8 76.344,23.144 76.472,23.544 C76.6,23.944 76.752,24.328 76.928,24.696 C77.104,25.064 77.296,25.376 77.504,25.632 C77.712,25.888 77.944,26.016 78.2,26.016 Z" id="hh" fill="#FF6D76" fill-rule="nonzero"></path>
                <path d="M96.384,24.336 C97.2,24.88 98.12,25.072 99.144,24.912 C99.688,24.816 100.28,24.64 100.92,24.384 C101.56,24.128 102.2,23.832 102.84,23.496 C103.48,23.16 104.088,22.808 104.664,22.44 C105.24,22.072 105.752,21.728 106.2,21.408 C106.84,21.76 107.408,21.928 107.904,21.912 C108.4,21.896 108.744,21.6 108.936,21.024 C109.096,20.608 109.072,20.128 108.864,19.584 C108.656,19.04 108.04,18.416 107.016,17.712 C107.048,16.944 107.064,16.08 107.064,15.12 C107.064,14.16 107.04,13.168 106.992,12.144 C106.944,11.12 106.88,10.104 106.8,9.096 C106.72,8.088 106.616,7.136 106.488,6.24 C106.36,5.408 105.992,4.728 105.384,4.2 C104.776,3.672 103.912,3.424 102.792,3.456 C102.024,3.488 101.256,3.664 100.488,3.984 C99.72,4.304 98.968,4.712 98.232,5.208 C97.496,5.704 96.792,6.256 96.12,6.864 C95.448,7.472 94.84,8.064 94.296,8.64 C94.008,9.024 93.88,9.384 93.912,9.72 C93.944,10.056 94.088,10.352 94.344,10.608 C94.6,10.864 94.912,11.008 95.28,11.04 C95.648,11.072 95.976,10.944 96.264,10.656 C97.192,9.824 98.168,9.04 99.192,8.304 C100.216,7.568 101.112,7.072 101.88,6.816 C102.328,6.656 102.704,6.632 103.008,6.744 C103.312,6.856 103.496,7.152 103.56,7.632 C103.624,8.048 103.68,8.552 103.728,9.144 C103.776,9.736 103.816,10.368 103.848,11.04 C103.88,11.712 103.904,12.376 103.92,13.032 C103.936,13.688 103.944,14.288 103.944,14.832 C103.56,14.448 103.144,14.176 102.696,14.016 C102.248,13.856 101.808,13.768 101.376,13.752 C100.944,13.736 100.528,13.76 100.128,13.824 C99.728,13.888 99.416,13.968 99.192,14.064 C98.296,14.384 97.52,14.832 96.864,15.408 C96.208,15.984 95.688,16.632 95.304,17.352 C94.92,18.072 94.68,18.824 94.584,19.608 C94.488,20.392 94.536,21.152 94.728,21.888 C95.016,22.976 95.568,23.792 96.384,24.336 Z M98.616,21.744 C98.36,21.808 98.128,21.792 97.92,21.696 C97.712,21.6 97.576,21.456 97.512,21.264 C97.352,20.752 97.36,20.232 97.536,19.704 C97.712,19.176 97.984,18.696 98.352,18.264 C98.72,17.832 99.136,17.464 99.6,17.16 C100.064,16.856 100.504,16.656 100.92,16.56 C101.176,16.528 101.456,16.624 101.76,16.848 C102.064,17.072 102.344,17.336 102.6,17.64 C102.856,17.944 103.08,18.248 103.272,18.552 C103.464,18.856 103.56,19.104 103.56,19.296 C102.984,19.84 102.208,20.344 101.232,20.808 C100.256,21.272 99.384,21.584 98.616,21.744 Z M115.048,23.616 C115.528,23.616 115.904,23.32 116.176,22.728 C116.448,22.136 116.584,21.552 116.584,20.976 C116.648,19.76 116.792,18.52 117.016,17.256 C117.24,15.992 117.672,14.752 118.312,13.536 C118.76,12.672 119.264,11.928 119.824,11.304 C120.384,10.68 120.976,10.136 121.6,9.672 C122.224,9.208 122.848,8.8 123.472,8.448 C124.096,8.096 124.696,7.76 125.272,7.44 C125.688,7.152 125.936,6.832 126.016,6.48 C126.096,6.128 126.072,5.872 125.944,5.712 C125.816,5.552 125.592,5.44 125.272,5.376 C124.952,5.312 124.552,5.312 124.072,5.376 C122.952,5.568 121.856,5.952 120.784,6.528 C119.712,7.104 118.752,7.808 117.904,8.64 C117.056,9.472 116.344,10.4 115.768,11.424 C115.192,12.448 114.84,13.504 114.712,14.592 C114.52,13.664 114.328,12.552 114.136,11.256 C113.944,9.96 113.784,8.72 113.656,7.536 C113.592,7.184 113.384,6.928 113.032,6.768 C112.68,6.608 112.312,6.512 111.928,6.48 C111.576,6.448 111.264,6.496 110.992,6.624 C110.72,6.752 110.584,7.04 110.584,7.488 C110.84,9.696 111.144,11.912 111.496,14.136 C111.848,16.36 112.296,18.608 112.84,20.88 C112.968,21.456 113.216,22.056 113.584,22.68 C113.952,23.304 114.44,23.616 115.048,23.616 Z M132.248,21.648 C133.336,21.936 134.392,21.984 135.416,21.792 C136.6,21.6 137.672,21.144 138.632,20.424 C139.592,19.704 140.328,18.832 140.84,17.808 C140.968,17.008 140.808,16.528 140.36,16.368 C140.2,16.304 139.96,16.312 139.64,16.392 C139.32,16.472 139.016,16.64 138.728,16.896 C138.44,17.152 138.104,17.408 137.72,17.664 C137.336,17.92 136.912,18.152 136.448,18.36 C135.984,18.568 135.488,18.72 134.96,18.816 C134.432,18.912 133.912,18.928 133.4,18.864 C132.536,18.736 131.816,18.344 131.24,17.688 C130.664,17.032 130.344,16.144 130.28,15.024 C131.944,15.024 133.496,14.824 134.936,14.424 C136.376,14.024 137.72,13.456 138.968,12.72 C139.512,12.368 139.84,11.968 139.952,11.52 C140.064,11.072 139.992,10.544 139.736,9.936 C139.288,8.848 138.504,8 137.384,7.392 C136.264,6.784 135.016,6.528 133.64,6.624 C132.488,6.688 131.48,6.944 130.616,7.392 C129.752,7.84 129.032,8.408 128.456,9.096 C127.88,9.784 127.456,10.576 127.184,11.472 C126.912,12.368 126.824,13.312 126.92,14.304 C127.016,15.36 127.256,16.384 127.64,17.376 C128.024,18.368 128.584,19.232 129.32,19.968 C130.184,20.8 131.16,21.36 132.248,21.648 Z M130.184,12.24 C130.216,11.856 130.352,11.512 130.592,11.208 C130.832,10.904 131.104,10.632 131.408,10.392 C131.712,10.152 132.048,9.952 132.416,9.792 C132.784,9.632 133.128,9.52 133.448,9.456 C134.152,9.328 134.848,9.336 135.536,9.48 C136.224,9.624 136.696,10 136.952,10.608 C136.6,10.832 136.16,11.04 135.632,11.232 C135.104,11.424 134.528,11.592 133.904,11.736 C133.28,11.88 132.64,12 131.984,12.096 C131.328,12.192 130.728,12.24 130.184,12.24 Z" id="are" fill="#3B6993" fill-rule="nonzero"></path>
                <path d="M26.8712649,13.7169574 C27.0326702,13.6591274 27.0075602,13.5238283 26.9789117,13.3415661 C26.9304865,13.0334839 26.8412139,12.8742183 26.7171176,12.7362686 C25.09802,10.936425 22.0869973,8.80665237 21.6064345,10.8074271 C21.322196,11.990825 21.047389,13.1782901 20.7820135,14.3698222 C20.7482748,14.5213083 20.6864079,14.5979767 20.6812548,14.8244777 C20.6779954,14.9677403 20.645791,15.1798976 20.7446517,15.2501066 C20.9355943,15.3857104 21.0558045,15.4049835 21.2608615,15.2361033 C21.6594115,14.9078667 22.1123076,14.0247081 22.61955,12.5866274 C23.3464267,15.5713766 23.7379004,17.7442365 23.7939711,19.1052072 C23.8780771,21.1466633 23.425464,21.0324255 22.5221514,22.2992591 C21.800381,23.3114922 20.3167238,23.8358281 19.5765241,24.0396583 C18.5641261,24.3184442 17.984318,24.332209 17.4561221,24.7993779 C17.0912743,25.0272039 17.0998446,25.2961162 17.0142143,25.63967 C16.9726971,25.8062393 17.0221275,26.0372811 17.1625055,26.3327955 C17.8273995,27.3688705 18.7481556,27.0234602 20.2926194,26.4700937 C22.8762347,25.5444669 25.1221299,23.497023 25.8111235,20.6939125 C26.281682,18.7794864 24.3329619,14.4677063 23.7567717,12.5121101 C25.5580254,13.4138984 26.5961898,13.8155141 26.8712649,13.7169574 Z" id="Path-Copy" fill="#3B6993" fill-rule="nonzero"></path>
                <path d="M8.71543443,2.21469678 C9.52210857,2.1006597 10.5467671,2.25486248 11.2944073,2.64521472 C11.4385076,2.72045126 11.4992013,2.71187117 11.6297743,2.66146173 C11.7233843,2.62921119 11.7792972,2.5728798 11.7975128,2.49246757 C11.8641948,2.19810198 11.9311008,1.77876151 11.9982308,1.23444614 C12.0033785,1.19270682 11.9972929,1.13564051 11.9799741,1.06324722 C11.9643545,1.00683909 11.9624004,0.93374441 11.9004007,0.887402805 C11.6730268,0.717452343 10.3095126,0.123588771 8.48010344,0.00792040232 C6.64921822,-0.107841294 4.90816393,1.06233342 3.71891448,2.40486798 C2.16817708,4.1554835 2.84756135,8.73555236 3.14300497,11.5060247 C1.66557872,10.6037328 0.690423935,10.2492583 0.217540608,10.4426013 C0.187499493,10.4548839 -0.0839167275,10.6506883 0.026109923,10.9768872 C0.0705740469,11.1087111 0.668154287,11.7945664 1.493614,12.3314492 C2.71075762,13.1230851 4.10253536,13.7313964 4.19070133,13.7860636 C4.33866094,13.8778059 4.57797152,14.0184505 4.72267232,13.9979946 C4.86737311,13.9775386 4.91836331,13.9218122 4.99227862,13.7971145 C5.68283774,12.6321169 5.8733255,11.2449618 5.56374191,9.63564895 C5.55193309,9.54132691 5.51495241,9.46804049 5.45279985,9.41578968 C5.35957102,9.33741346 5.2656843,9.31417672 5.20423982,9.33342041 C4.80235735,9.45928524 4.44287926,10.1371748 4.12580555,11.3670892 C3.88099528,9.07142253 3.97030086,4.83710372 5.43143199,3.39242111 C6.303491,2.5301792 7.53688903,2.38130417 8.71543443,2.21469678 Z" id="Path-Copy-2" fill="#3B6993" fill-rule="nonzero"></path>
                <g transform="translate(7.000000, 4.000000)" fill="#FF6D76" id="2.-UI-Elements/Logo/Hamburg-2">
                    <path d="M10.1380456,10.1951987 C11.7616582,10.2028986 12.6161302,10.2187821 12.7014615,10.2428492 C12.9712626,10.3189445 13.1075326,10.3139767 13.1075326,10.5464508 C13.1075326,11.8001665 12.5815307,12.727638 12.7014615,13.3707235 C12.8139164,13.9737221 13.1202719,14.6227028 13.3654383,15.1195753 C13.5482444,15.490064 13.5864393,15.6989567 13.5954549,15.8181862 C13.6165613,16.0973174 13.5885974,16.1743441 13.2208058,16.4192525 C12.9756114,16.5825248 11.289524,16.5825248 8.16254355,16.4192525 C8.16254355,15.6627629 8.29953609,14.8024808 8.57352118,13.8384064 C8.9844988,12.3922948 7.50084237,12.0996416 6.93548001,12.0996416 C6.37011765,12.0996416 5.70026727,12.448321 5.44973287,13.1456369 C5.28270994,13.6105141 5.58115803,14.7017194 6.34507715,16.4192525 L4.47264997,16.6234108 C1.91124959,16.9847656 0.573317542,16.801712 0.458853836,16.0742501 C0.287158276,14.9830572 0.706053784,14.4041194 0.813170625,13.9872031 C0.887497059,13.6979125 0.951286896,13.4173904 1.00454014,13.1456369 L1.31468753,11.3292741 C1.35514418,10.8695342 1.39262561,10.5835141 1.4271318,10.4712135 C1.461638,10.358913 1.6224992,10.2684219 1.90971542,10.1997403 C6.19610096,10.1910256 8.93887768,10.1895118 10.1380456,10.1951987 Z M6.74428888,0.413612668 C6.84092771,-0.230365641 7.02157845,-0.0685328237 7.11762221,0.529008496 C7.12983518,0.604992146 7.13971864,0.693251511 7.14727259,0.793786593 C7.35009186,0.805554744 7.53582916,0.831102251 7.67762221,0.870472054 C8.04164197,0.971544612 8.81386946,1.18561633 8.3877004,1.2851062 C8.18021257,1.33354457 7.67393371,1.35938802 7.16590466,1.36119327 C7.1658819,1.53022949 7.16269199,1.71761945 7.15606058,1.92314494 C7.79667189,2.01280138 8.38249755,2.48223028 8.38249755,3.20027529 C8.38249755,3.23308468 8.38127446,3.26590453 8.37887889,3.29867902 C8.58977661,3.30218061 8.79243686,3.31953583 8.98428888,3.35827693 C10.1033267,3.58424671 9.96526388,3.98945477 8.98428888,4.18754522 C8.78585869,4.22761467 8.5290688,4.26008331 8.23970219,4.28464506 L8.23750305,8.61638057 C8.72319483,8.63490333 9.19923214,8.6537616 9.65452002,8.6716391 C9.71326348,8.11722862 9.74396398,7.67449492 9.74614016,7.3417173 C9.75064444,6.65293082 9.84796158,5.74967097 9.9575439,5.22413059 C10.3003829,3.57992584 11.4941844,4.67937727 12.1576222,5.22413059 C12.6103135,5.59583845 12.3077731,6.67032153 12.1576222,7.83381682 C12.1270834,8.07045762 12.1151093,8.3780712 12.1216999,8.75665756 C12.7972026,8.77558534 13.2781486,8.77628544 13.4642889,8.74852083 C14.1925218,8.63989789 14.0266475,8.97621882 12.9666658,9.75748365 C6.72631181,9.86276006 2.53663061,9.80286189 0.397622211,9.57778913 C0.111068566,9.57778913 -0.331716443,9.4029304 0.397622211,8.74852083 C0.539706527,8.62103364 1.08087963,8.54940234 1.86833044,8.51549778 C1.98524924,7.71243286 2.03992037,7.14355736 2.03380604,6.80872725 C2.01980587,6.04205689 1.39202838,5.79206484 1.70428888,5.22413059 C1.91567762,4.90749533 3.60986222,3.97354808 4.31762221,5.22413059 C4.53183509,5.60263585 4.08478394,6.45136529 4.10449377,7.08441704 C4.11484423,7.41685901 4.14889187,7.88810236 4.20663667,8.4981471 C4.66112319,8.50455661 5.13768569,8.51510606 5.62433592,8.52834303 L5.62465872,4.2995613 C5.30919845,4.27423332 5.04665947,4.23705521 4.87762221,4.18754522 C4.15921387,3.9771278 3.37674577,3.08263096 4.87762221,3.35827693 C5.03924474,3.38795999 5.20070349,3.4086298 5.36155691,3.42216552 L5.34656714,3.33377464 L5.34656714,3.33377464 L5.33868064,3.20027529 C5.33868064,2.4790455 6.04367404,2.0086421 6.71071083,1.92166642 C6.7035346,1.71543882 6.70005715,1.526137 6.69939268,1.3543775 C6.34297147,1.34595269 6.03645753,1.32257273 5.90151925,1.2851062 C5.52818592,1.18144766 5.70862408,0.98151678 6.18428888,0.870472054 C6.3452967,0.832884514 6.52669714,0.80916255 6.7103549,0.798145921 C6.71732453,0.644787491 6.72881093,0.516754024 6.74428888,0.413612668 Z M3.01095554,2.43536827 L3.23039537,3.23014793 L3.99533833,3.33592721 L3.36601664,3.693723 L3.65420284,3.98022815 L3.01095554,3.98022815 L2.30083335,4.49308804 L2.65589445,3.693723 L2.10468827,3.23014793 L2.79151572,3.23014793 L3.01095554,2.43536827 Z M10.8509555,2.42769246 L11.0703954,3.23014793 L11.6300018,2.98785382 L11.2060166,3.693723 L11.985115,4.23648615 L10.8509555,3.98022815 L10.2102476,3.98022815 L10.4958944,3.693723 L9.90894879,2.98785382 L10.6315157,3.23014793 L10.8509555,2.42769246 Z" id="Combined-Shape"></path>
                </g>
            </g>
        </g>
    </g>
</svg>