<?xml version="1.0" encoding="UTF-8"?>
<svg width="124px" height="32px" viewBox="0 0 124 32" version="1.1" xmlns="http://www.w3.org/2000/svg" xmlns:xlink="http://www.w3.org/1999/xlink">
    <title>shhare logo small</title>
    <g id="🎨-Setup-—-Customize-Here-" stroke="none" stroke-width="1" fill="none" fill-rule="evenodd">
        <g id="Logo" transform="translate(-97.000000, -806.000000)">
            <g id="Group-5" transform="translate(96.000000, 802.000000)">
                <g id="Group-4" transform="translate(0.000000, 4.000000)">
                    <path d="M28.6257376,13.0475468 C28.6260859,12.8326696 28.4673034,12.8151619 28.2554582,12.7853393 C27.8973713,12.7349294 27.6867984,12.7862654 27.4858733,12.887082 C24.8643837,14.2024462 21.3283659,17.0783547 23.3388195,18.3636173 C24.5279421,19.1238113 25.7252762,19.874078 26.9308218,20.6144172 C27.0840895,20.7085407 27.1439094,20.8101426 27.3910231,20.8963061 C27.5473232,20.9508048 27.7679386,21.0644967 27.884347,20.9701718 C28.1091817,20.7879899 28.17802,20.6499626 28.0735093,20.3432925 C27.8703818,19.7472467 27.0783651,18.8898362 25.6974593,17.771061 C29.2687956,17.9489282 31.8141217,18.2442959 33.3334376,18.6571644 C35.6124115,19.2764671 35.3073836,19.7814553 36.3429573,21.3169708 C37.1704077,22.5438877 37.1592365,24.5165079 37.0901237,25.4802622 C36.9955956,26.7984239 36.7809678,27.5018431 37.085547,28.3031312 C37.1915765,28.8231273 37.4907818,28.9077278 37.8347641,29.1321709 C38.0015411,29.2409904 38.2752804,29.2629938 38.6559821,29.1981813 C40.0591736,28.7628433 40.0440972,27.5315744 40.0474483,25.475446 C40.0530709,22.0359262 38.6908555,18.6072942 35.880414,16.7876866 C33.9609811,15.5449585 28.4456849,16.3707417 26.066153,16.374617 C27.771949,14.5227748 28.6251438,13.4137514 28.6257376,13.0475468 Z" id="Path-Copy" fill="#3B6993" fill-rule="nonzero" transform="translate(31.396718, 21.000098) rotate(72.000000) translate(-31.396718, -21.000098) "></path>
                    <path d="M4.80839365,4.87268918 C4.80913068,3.76771158 5.16135304,2.40694036 5.74471477,1.45381985 C5.85715198,1.27011529 5.85720743,1.1869774 5.81979575,1.00354659 C5.79754273,0.872598364 5.74070878,0.789078491 5.64929391,0.752986971 C5.31465088,0.620866502 4.83324332,0.470557572 4.20507123,0.302060182 C4.15690158,0.289139424 4.08885245,0.289185057 4.00092384,0.302197082 C3.93205594,0.315203654 3.84586888,0.307379729 3.78108153,0.384419838 C3.54348421,0.666952177 2.61823477,2.42210676 2.17690725,4.87445384 C1.73522365,7.32877963 2.81906624,9.84591346 4.19750673,11.6430202 C5.99494226,13.986381 11.4883639,13.7249994 14.7920337,13.7227839 C13.4854685,15.5875284 12.9062624,16.8528287 13.0544153,17.518685 C13.0638271,17.5609852 13.2485105,17.9553013 13.6500518,17.8534984 C13.8123231,17.8123577 14.7177424,17.1040442 15.48622,16.0668725 C16.6193434,14.5375588 17.566283,12.7463285 17.6452191,12.6351669 C17.7776893,12.4486162 17.9829878,12.1457805 17.9829878,11.9475701 C17.9829878,11.7493598 17.9261745,11.6725699 17.7920399,11.5549702 C16.5388769,10.4562858 14.9412589,10.000684 12.9991859,10.1881649 C12.8864187,10.1906024 12.794158,10.2300216 12.7224038,10.3064223 C12.6147726,10.4210233 12.5718013,10.5444037 12.5841465,10.630081 C12.6648912,11.1904598 13.401153,11.772616 14.7929317,12.3765494 C12.0554474,12.3783851 7.09651008,11.651855 5.64347746,9.47320788 C4.77625196,8.17290785 4.80731686,6.48705391 4.80839365,4.87268918 Z" id="Path-Copy-2" fill="#3B6993" fill-rule="nonzero" transform="translate(10.029940, 9.081316) rotate(83.000000) translate(-10.029940, -9.081316) "></path>
                    <g id="2.-UI-Elements/Logo/Hamburg-2" transform="translate(11.268293, 4.571429)" fill="#FF6D76">
                        <path d="M13.3525478,11.8801195 C15.4909644,11.889092 16.6163666,11.9076004 16.7287542,11.935645 C17.084102,12.0243163 17.2635796,12.0185274 17.2635796,12.2894217 C17.2635796,13.7503341 16.5707965,14.8310851 16.7287542,15.580451 C16.8768656,16.2831047 17.2803582,17.0393399 17.6032601,17.6183286 C17.8440292,18.0500465 17.8943348,18.2934622 17.9062088,18.4323962 C17.9340076,18.7576584 17.897177,18.847415 17.4127686,19.1327985 C17.0898296,19.3230541 14.8691291,19.3230541 10.7506671,19.1327985 C10.7506671,18.2512867 10.9310963,17.2488292 11.2919547,16.1254259 C11.8332423,14.4403211 9.87915824,14.0993022 9.13453465,14.0993022 C8.38991106,14.0993022 7.50766909,14.5056066 7.17769695,15.3181651 C6.95771553,15.8598708 7.3507935,17.1314153 8.35693089,19.1327985 L5.89080727,19.3706972 C2.51725555,19.7917717 0.755101153,19.5784655 0.604344076,18.7307788 C0.378208462,17.4592487 0.929924496,16.7846322 1.07100521,16.2988137 C1.16889857,15.9617131 1.25291445,15.6348303 1.32305286,15.3181651 L1.73153968,13.2016191 C1.78482404,12.6658998 1.83418982,12.3326102 1.87963701,12.2017502 C1.92508419,12.0708902 2.13695017,11.965444 2.51523495,11.8854117 C8.16071833,11.8752568 11.773156,11.8734927 13.3525478,11.8801195 Z M8.88272194,0.481968824 C9.01000236,-0.268437274 9.24793259,-0.0798589766 9.37442925,0.616435671 C9.39060109,0.705452755 9.40367172,0.808928502 9.41364114,0.926862913 C9.68078964,0.938707651 9.92530744,0.968472242 10.1119902,1.01433158 C10.5914309,1.13210801 11.608511,1.38155853 11.0472152,1.4974907 C10.7739098,1.55394023 10.1069919,1.58405512 9.43780963,1.58615304 C9.43800705,1.78201246 9.43381718,2.00046737 9.4250878,2.24008675 C10.2689513,2.34556542 11.0403626,2.89254768 11.0403626,3.72917233 C11.0403626,3.76796131 11.0387044,3.80676284 11.0354576,3.84550899 C11.314047,3.84797091 11.5806058,3.86820032 11.8329658,3.91328628 C13.3068205,4.17660121 13.1249817,4.64877643 11.8329658,4.87960452 C11.5713174,4.92634993 11.2326276,4.96421793 10.8509722,4.99285063 L10.8499632,10.0403954 C11.4893928,10.061971 12.1161125,10.0839368 12.7155268,10.1047608 C12.7930664,9.45888875 12.8335131,8.94288796 12.8363797,8.55505433 C12.8423122,7.75243479 12.970486,6.69989671 13.1148139,6.08750231 C13.566358,4.17156625 15.1386818,5.45271973 16.012478,6.08750231 C16.6087056,6.52064089 16.2102377,7.7726996 16.012478,9.12848123 C15.9722407,9.40433643 15.9564733,9.76295721 15.9651757,10.2043436 C16.8544733,10.2258917 17.48822,10.2267176 17.7334536,10.1943548 C18.6925897,10.0677802 18.4741211,10.4596836 17.0780477,11.370065 C8.85904483,11.49274 3.34092812,11.4229427 0.523697546,11.160673 C0.146285429,11.160673 -0.436894828,10.9569161 0.523697546,10.1943548 C0.710843258,10.0457902 1.4236758,9.96231961 2.46089867,9.92281444 C2.61479616,8.98632167 2.68672005,8.32393484 2.67867136,7.93397909 C2.66023212,7.04060411 1.83340323,6.74929685 2.24467316,6.08750231 C2.5230876,5.71853798 4.75445268,4.6302409 5.68662438,6.08750231 C5.96875841,6.52856167 5.37995934,7.51755731 5.40591863,8.25523106 C5.41954034,8.64231324 5.46432445,9.19088457 5.54027097,9.90094504 C6.13902927,9.91007195 6.76656406,9.92236184 7.40738179,9.93778234 L7.4074182,5.01008552 C6.99223172,4.98057271 6.6467003,4.93726586 6.42418535,4.87960452 C5.47798901,4.63441223 4.44742125,3.59208538 6.42418535,3.91328628 C6.6361492,3.94772792 6.84789916,3.97175582 7.05886107,3.9875319 C7.04098505,3.89971499 7.03143304,3.81441334 7.03143304,3.72917233 C7.03143304,2.88894172 7.95953224,2.34085568 8.83788869,2.23932302 C8.82900825,1.99729728 8.82445377,1.77728389 8.8235878,1.57762156 C8.35348391,1.56834757 7.95030794,1.54111274 7.77273268,1.4974907 C7.28102536,1.37670092 7.51867562,1.14372824 8.14516096,1.01433158 C8.35719319,0.970537641 8.59607718,0.942896696 8.83793651,0.930057267 C8.84724951,0.750938989 8.86236437,0.601990775 8.88272194,0.481968824 Z M3.96564877,2.8378521 L4.25466708,3.76398191 L5.26215292,3.88724291 L4.43329021,4.30417022 L4.81285252,4.63802496 L3.96564877,4.63802496 L3.03036587,5.23564321 L3.49800732,4.30417022 L2.77202845,3.76398191 L3.67663046,3.76398191 L3.96564877,2.8378521 Z M14.2915024,2.82890774 L14.5805207,3.76398191 L15.3175633,3.48164479 L14.7591439,4.30417022 L15.7852735,4.93663372 L14.2915024,4.63802496 L13.4476432,4.63802496 L13.823861,4.30417022 L13.0508106,3.48164479 L14.0024841,3.76398191 L14.2915024,2.82890774 Z" id="Combined-Shape"></path>
                    </g>
                </g>
                <text id="shhare" font-family="NanumPen, Nanum Pen Script" font-size="36" font-weight="normal" letter-spacing="-0.6">
                    <tspan x="49" y="33" fill="#3B6993">s</tspan>
                    <tspan x="60.604" y="33" fill="#FF6D76">hh</tspan>
                    <tspan x="89.14" y="33" fill="#3B6993">are</tspan>
                </text>
            </g>
        </g>
    </g>
</svg>