<?xml version="1.0" encoding="UTF-8"?>
<svg width="72px" height="61px" viewBox="0 0 72 61" version="1.1" xmlns="http://www.w3.org/2000/svg" xmlns:xlink="http://www.w3.org/1999/xlink">
    <title>Icon shhare</title>
    <g id="🎨-Setup-—-Customize-Here-" stroke="none" stroke-width="1" fill="none" fill-rule="evenodd">
        <g id="Logo" transform="translate(-183.000000, -1287.000000)">
            <g id="Group-4" transform="translate(180.000000, 1286.000000)">
                <path d="M55.7995333,25.7881452 C55.799185,25.3682887 55.4867458,25.3333158 55.0698632,25.274025 C54.3651968,25.1738043 53.9512075,25.2730989 53.5564353,25.4691223 C48.4058032,28.0266591 41.4636305,33.6290126 45.4247516,36.1500155 C47.7676352,37.6411127 50.1266245,39.1128518 52.5017196,40.5652328 C52.8036786,40.7498821 52.9218442,40.9486944 53.4083776,41.1182419 C53.7161113,41.2254812 54.1506499,41.4486902 54.3791932,41.2649446 C54.8206086,40.910053 54.9553624,40.6406864 54.7482951,40.0409674 C54.3458379,38.8753501 52.7836683,37.1962078 50.0617863,35.0035405 C57.088128,35.3682637 62.0966811,35.9576408 65.0874456,36.7716717 C69.5735924,37.9927181 68.9759751,38.9779693 71.020529,41.9832626 C72.6541809,44.3845702 72.6416949,48.238906 72.5103734,50.1216955 C72.3307603,52.696855 71.9119312,54.0702643 72.5149502,55.6374016 C72.7260316,56.653955 73.3150315,56.8206989 73.9927886,57.2609031 C74.3213937,57.4743325 74.859996,57.518643 75.6085955,57.3938344 C78.3668412,56.5499586 78.3312598,54.1440556 78.3279262,50.1265117 C78.3224745,43.4059096 75.6262479,36.7000012 70.0888307,33.1310695 C66.306969,30.6936144 55.4613231,32.2806159 50.7803578,32.2767406 C54.1270685,28.6665508 55.8001271,26.5036857 55.7995333,25.7881452 Z" id="Path-Copy" fill="#3B6993" fill-rule="nonzero" transform="translate(61.291095, 41.348686) rotate(72.000000) translate(-61.291095, -41.348686) "></path>
                <path d="M9.29783786,9.65253775 C9.29710083,7.49493334 9.98775861,4.83855611 11.134223,2.97862513 C11.3551927,2.62014182 11.3551372,2.45780488 11.2811289,2.0995594 C11.2370644,1.84382268 11.125021,1.68062723 10.9449987,1.60997305 C10.28599,1.35132885 9.33803831,1.05687882 8.10114359,0.72662297 C8.00629573,0.701298211 7.87234064,0.701252577 7.69927832,0.72648607 C7.56373714,0.751746655 7.39406184,0.73629882 7.26668002,0.886600911 C6.79952749,1.43780991 4.98164282,4.86313497 4.11774226,9.65077309 C3.25314465,14.4422741 5.3916802,19.3594363 8.1087081,22.8712394 C11.6516122,27.4505011 22.4649331,26.9509981 28.9682254,26.9532136 C26.399935,30.5917714 25.262269,33.0612804 25.5552275,34.3617407 C25.5738385,34.4443557 25.9381698,35.2146726 26.7284049,35.0166849 C27.0477558,34.9366738 28.8286774,33.5553965 30.3393773,31.5317118 C32.5669103,28.5477807 34.4274209,25.0520562 34.582587,24.8351557 C34.842986,24.4711546 35.2461252,23.8802365 35.2461252,23.4932065 C35.2461252,23.1061765 35.1337437,22.956122 34.8694658,22.7262282 C32.4004304,20.5784294 29.2546064,19.6856471 25.4319936,20.0478814 C25.2100153,20.0524178 25.0284775,20.1292059 24.8873803,20.2782456 C24.6757344,20.5018053 24.5913893,20.7426357 24.6158605,20.9099556 C24.7759167,22.0043248 26.2264057,23.1425147 28.9673274,24.3245253 C23.5785744,24.3226895 13.8154336,22.8942306 10.9508152,18.6372748 C9.2411012,16.0965605 9.29891465,12.804783 9.29783786,9.65253775 Z" id="Path-Copy-2" fill="#3B6993" fill-rule="nonzero" transform="translate(19.584616, 17.878347) rotate(83.000000) translate(-19.584616, -17.878347) "></path>
                <g id="2.-UI-Elements/Logo/Hamburg-2" transform="translate(22.000000, 9.000000)" fill="#FF6D76">
                    <path d="M26.0692601,23.3889854 C30.2442639,23.4066498 32.4414776,23.4430884 32.6609011,23.4983011 C33.3546754,23.6728728 33.7050839,23.6614759 33.7050839,24.1947989 C33.7050839,27.0709703 32.3525074,29.1986989 32.6609011,30.6740128 C32.9500708,32.0573624 33.7378421,33.5462005 34.3682698,34.6860845 C34.8383427,35.5360291 34.9365583,36.0152537 34.9597411,36.28878 C35.0140149,36.92914 34.9421076,37.1058483 33.9963577,37.667697 C33.3658578,38.0422628 29.0302045,38.0422628 20.9893977,37.667697 C20.9893977,35.9322207 21.3416642,33.9586325 22.0461973,31.7469323 C23.1029969,28.4293821 19.2878804,27.7580012 17.8340915,27.7580012 C16.3803025,27.7580012 14.6578301,28.5579129 14.0135988,30.1576376 C13.5841113,31.2241207 14.3515492,33.7274738 16.3159127,37.667697 L11.5010999,38.1360601 C4.91464179,38.9650504 1.47424511,38.545104 1.17990986,36.8762207 C0.738406996,34.3728959 1.81556687,33.0447446 2.09101018,32.0882896 C2.28213529,31.4246227 2.4461663,30.7810721 2.58310321,30.1576376 L3.38062508,25.9906875 C3.48465647,24.9359903 3.58103727,24.2798264 3.66976749,24.0221957 C3.7584977,23.764565 4.17214081,23.5569679 4.9106968,23.3994043 C15.932831,23.3794117 22.9856855,23.3759388 26.0692601,23.3889854 Z M17.3424571,0.948876122 C17.590957,-0.528485883 18.0554874,-0.15722236 18.3024571,1.21360773 C18.3340476,1.38895386 18.3595768,1.59279594 18.3790449,1.82513399 C18.8994025,1.84793508 19.3775282,1.90656752 19.7424571,1.9969653 C20.6785079,2.22883764 22.6642358,2.71994335 21.5683724,2.94818481 C21.0347109,3.05933343 19.7323798,3.11862303 18.4257201,3.12274031 C18.4265691,3.50923494 18.4183861,3.93899069 18.4013557,4.41034165 C20.0493902,4.61817903 21.5549937,5.69496869 21.5549937,7.34180802 C21.5549937,7.41778202 21.5517894,7.4937805 21.5455146,7.56967171 C22.0894982,7.57570562 22.6098339,7.61553374 23.1024571,7.70428237 C25.9799829,8.22268364 25.6249643,9.15227859 23.1024571,9.6067214 C22.5913372,9.69880231 21.9296368,9.7733865 21.183995,9.82976819 L21.1826928,19.7670092 C22.4309154,19.8094792 23.6543356,19.8527177 24.8244709,19.8937099 C24.9768632,18.6231644 25.0559038,17.6066779 25.0615033,16.8427632 C25.0730857,15.262606 25.3233298,13.1904216 25.6051129,11.9847702 C26.486699,8.21277105 29.5564741,10.735042 31.2624571,11.9847702 C32.4265204,12.8375117 31.6485593,15.3025023 31.2624571,17.9716974 C31.1838764,18.51494 31.1530972,19.2212191 31.1701193,20.0905345 C32.9054044,20.132223 34.1434841,20.1338748 34.6224571,20.070136 C36.4950561,19.8209422 36.0685221,20.592502 33.342855,22.3848154 C17.2962304,22.6263319 6.52276443,22.4889185 1.02245711,21.9725751 C0.285604885,21.9725751 -0.85298514,21.5714286 1.02245711,20.070136 C1.38801352,19.7775079 2.78090371,19.6131578 4.80754982,19.5354282 C5.10495045,17.6930071 5.24550819,16.3880959 5.22978695,15.6200213 C5.19378652,13.8611893 3.57950154,13.2876782 4.38245711,11.9847702 C4.92602817,11.2583716 9.28250284,9.11578677 11.1024571,11.9847702 C11.6532902,12.8531058 10.5037301,14.800191 10.5544126,16.2524861 C10.5810173,17.0148385 10.6685082,18.0953599 10.8168855,19.4940503 C11.9872146,19.5104831 13.2117863,19.5346704 14.4622629,19.5650146 L14.461312,9.86354922 C13.6510616,9.80544711 12.9767499,9.72020527 12.5424571,9.6067214 C10.6951214,9.12399907 8.68306054,7.07191809 12.5424571,7.70428237 C12.9566346,7.77214559 13.3703939,7.81947274 13.782611,7.8505307 C13.7470281,7.68063828 13.7280359,7.51116235 13.7280359,7.34180802 C13.7280359,5.68809647 15.5389604,4.60920211 17.253394,4.40884595 C17.2376784,3.93546768 17.2287636,3.50289883 17.2270235,3.11024814 C16.309874,3.08773135 15.522182,3.03410341 15.1753352,2.94818481 C14.2153352,2.71037993 14.6793191,2.25171497 15.9024571,1.9969653 C16.3159163,1.91085188 16.7816717,1.8564616 17.253279,1.83114352 C17.2730667,1.47975067 17.3026206,1.18570892 17.3424571,0.948876122 Z M7.74245711,5.58702132 L8.30673096,7.41033938 L10.2737271,7.65300948 L8.65547137,8.47383512 L9.39652159,9.13111164 L7.74245711,9.13111164 L5.9164286,10.3076726 L6.82944286,8.47383512 L5.41205555,7.41033938 L7.17818327,7.41033938 L7.74245711,5.58702132 Z M27.9024571,5.56941212 L28.466731,7.41033938 L29.9057189,6.85448819 L28.8154714,8.47383512 L30.8188673,9.71899763 L27.9024571,9.13111164 L26.2549224,9.13111164 L26.9894429,8.47383512 L25.480154,6.85448819 L27.3381833,7.41033938 L27.9024571,5.56941212 Z" id="Combined-Shape"></path>
                </g>
            </g>
        </g>
    </g>
</svg>